<svg width="30" height="35" viewBox="0 0 42 38" fill="none" xmlns="http://www.w3.org/2000/svg">
<path d="M37.4999 0.666656H4.49992C2.48325 0.666656 0.833252 2.31666 0.833252 4.33332V26.3333C0.833252 27.3058 1.21956 28.2384 1.90719 28.926C2.59483 29.6137 3.52746 30 4.49992 30H17.3333V33.6667H13.6666V37.3333H28.3333V33.6667H24.6666V30H37.4999C39.5349 30 41.1666 28.3683 41.1666 26.3333V4.33332C41.1666 3.36086 40.7803 2.42823 40.0926 1.7406C39.405 1.05296 38.4724 0.666656 37.4999 0.666656ZM37.4999 26.3333H4.49992V4.33332H37.4999V26.3333ZM28.0399 12.0333L26.1883 13.885L22.3933 10.1633L24.2449 8.29332C24.6116 7.90832 25.2349 7.88999 25.6749 8.29332L28.0399 10.585C28.4249 10.97 28.4433 11.5933 28.0399 12.0333ZM13.6666 18.835L21.3116 11.1533L25.1066 14.9667L17.4799 22.6667H13.6666V18.835Z" fill="#1D3B76"/>
</svg>
