<svg width="30" height="35" viewBox="0 0 33 36" fill="none" xmlns="http://www.w3.org/2000/svg">
<path d="M17.3334 0.333344H4.00008C2.15008 0.333344 0.666748 1.81668 0.666748 3.66668V30.3333C0.666748 32.1833 2.15008 33.6667 4.00008 33.6667H17.0168C16.1334 32.15 15.6667 30.4167 15.6667 28.6667C15.6667 23.15 20.1501 18.6667 25.6667 18.6667C26.2334 18.6667 26.7834 18.7167 27.3334 18.8V10.3333L17.3334 0.333344ZM15.6667 12V2.83334L24.8334 12H15.6667ZM32.3334 30.3333H27.3334V35.3333H24.0001V30.3333H19.0001V27H24.0001V22H27.3334V27H32.3334V30.3333Z" fill="#1D3B76"/>
</svg>
