<?xml version="1.0" encoding="UTF-8" ?>
<!DOCTYPE svg PUBLIC "-//W3C//DTD SVG 1.1//EN" "http://www.w3.org/Graphics/SVG/1.1/DTD/svg11.dtd">
<svg width="512pt" height="512pt" viewBox="0 0 512 512" version="1.1" xmlns="http://www.w3.org/2000/svg">
<g id="#000000ff">
<path fill="#000000" opacity="1.00" d=" M 253.54 0.00 L 259.23 0.00 C 281.27 0.61 303.42 4.09 324.10 11.96 C 381.67 32.00 428.92 79.36 448.93 136.93 C 460.29 167.60 463.23 201.18 458.75 233.50 C 452.24 279.19 429.59 322.38 395.83 353.82 C 356.37 391.29 301.45 412.06 247.01 409.37 C 192.19 407.16 138.94 381.35 102.87 340.10 C 82.14 317.02 67.18 288.99 58.63 259.21 C 50.31 229.34 49.00 197.55 54.75 167.09 C 60.80 135.55 74.35 105.41 94.10 80.08 C 131.44 31.06 191.83 0.48 253.54 0.00 M 243.23 103.29 C 212.99 106.92 185.02 125.05 169.10 150.98 C 156.31 171.28 151.16 196.23 154.82 219.95 C 158.14 242.68 169.59 264.07 186.44 279.65 C 203.83 295.97 227.12 305.94 250.98 306.96 C 271.00 308.04 291.30 302.94 308.45 292.54 C 330.82 279.21 347.77 257.04 354.64 231.91 C 360.42 211.14 359.38 188.51 351.58 168.41 C 342.57 144.71 324.40 124.64 301.70 113.33 C 283.80 104.24 263.14 100.77 243.23 103.29 Z" />
<path fill="#000000" opacity="1.00" d=" M 243.17 156.04 C 247.54 153.17 252.99 153.70 257.97 153.69 C 269.58 154.00 280.85 158.79 289.53 166.43 C 306.61 180.78 312.38 207.05 301.95 226.95 C 296.01 239.47 284.66 249.06 271.62 253.52 C 258.73 257.66 244.01 256.63 232.19 249.86 C 216.13 241.55 205.10 224.12 204.87 205.98 C 204.93 201.25 204.50 196.13 207.21 191.99 C 212.54 195.04 218.93 196.28 224.93 194.65 C 237.47 191.60 247.52 179.07 246.25 165.96 C 246.00 162.46 244.60 159.20 243.17 156.04 Z" />
<path fill="#000000" opacity="1.00" d=" M 79.65 493.64 C 94.06 469.90 108.46 446.15 122.88 422.42 C 126.55 424.64 130.21 426.88 133.87 429.13 C 174.50 452.91 222.40 462.34 269.14 460.46 C 313.25 459.08 356.75 445.63 394.25 422.42 C 408.78 446.30 423.23 470.23 437.78 494.10 C 437.22 498.25 436.54 502.62 433.80 505.97 C 431.26 509.67 426.95 511.81 422.50 512.00 L 89.20 512.00 C 84.85 511.73 80.41 509.53 78.54 505.43 C 76.58 501.65 77.41 497.09 79.65 493.64 Z" />
</g>
</svg>
